{
  "accessors": [
    {
      "bufferView": 2,
      "componentType": 5126,
      "count": 65532,
      "max": [
        44.250980377197266,
        8.366555213928223,
        69.90520477294922
      ],
      "min": [
        -14.230965614318848,
        -33.41259002685547,
        1.5211069583892822
      ],
      "type": "VEC3"
    },
    {
      "bufferView": 2,
      "byteOffset": 786384,
      "componentType": 5126,
      "count": 65532,
      "max": [
        0.999972403049469,
        0.9999385476112366,
        0.9999982118606567
      ],
      "min": [
        -0.9999982714653015,
        -1.0,
        -0.9999555945396423
      ],
      "type": "VEC3"
    },
    {
      "bufferView": 1,
      "componentType": 5126,
      "count": 65532,
      "max": [
        0.9999570250511169,
        0.999360978603363
      ],
      "min": [
        2.700000004551839e-05,
        0.00017600000137463212
      ],
      "type": "VEC2"
    },
    {
      "bufferView": 0,
      "componentType": 5125,
      "count": 327774,
      "type": "SCALAR"
    },
    {
      "bufferView": 2,
      "byteOffset": 1572768,
      "componentType": 5126,
      "count": 65532,
      "max": [
        56.70313262939453,
        8.397974967956543,
        34.979705810546875
      ],
      "min": [
        -4.947103023529053,
        -35.75872802734375,
        1.3804600238800049
      ],
      "type": "VEC3"
    },
    {
      "bufferView": 2,
      "byteOffset": 2359152,
      "componentType": 5126,
      "count": 65532,
      "max": [
        0.9999953508377075,
        0.9999859929084778,
        0.9999006390571594
      ],
      "min": [
        -0.9999940395355225,
        -0.9999992251396179,
        -0.9999738931655884
      ],
      "type": "VEC3"
    },
    {
      "bufferView": 1,
      "byteOffset": 524256,
      "componentType": 5126,
      "count": 65532,
      "max": [
        0.9999920129776001,
        0.9994189739227295
      ],
      "min": [
        2.300000051036477e-05,
        1.8000000636675395e-05
      ],
      "type": "VEC2"
    },
    {
      "bufferView": 0,
      "byteOffset": 1311096,
      "componentType": 5125,
      "count": 280884,
      "type": "SCALAR"
    },
    {
      "bufferView": 2,
      "byteOffset": 3145536,
      "componentType": 5126,
      "count": 65532,
      "max": [
        54.53676223754883,
        8.753849983215332,
        65.17155456542969
      ],
      "min": [
        0.5691630244255066,
        -18.898767471313477,
        9.772391319274902
      ],
      "type": "VEC3"
    },
    {
      "bufferView": 2,
      "byteOffset": 3931920,
      "componentType": 5126,
      "count": 65532,
      "max": [
        0.9999921321868896,
        0.9999850988388062,
        0.999909520149231
      ],
      "min": [
        -0.9999510645866394,
        -0.9999991655349731,
        -0.9999175071716309
      ],
      "type": "VEC3"
    },
    {
      "bufferView": 1,
      "byteOffset": 1048512,
      "componentType": 5126,
      "count": 65532,
      "max": [
        0.9999619722366333,
        0.9999859929084778
      ],
      "min": [
        2.4000000848900527e-05,
        7.300000288523734e-05
      ],
      "type": "VEC2"
    },
    {
      "bufferView": 0,
      "byteOffset": 2434632,
      "componentType": 5125,
      "count": 322092,
      "type": "SCALAR"
    },
    {
      "bufferView": 2,
      "byteOffset": 4718304,
      "componentType": 5126,
      "count": 65532,
      "max": [
        54.14014434814453,
        8.915669441223145,
        83.02386474609375
      ],
      "min": [
        -9.760751724243164,
        -21.42460060119629,
        14.614469528198242
      ],
      "type": "VEC3"
    },
    {
      "bufferView": 2,
      "byteOffset": 5504688,
      "componentType": 5126,
      "count": 65532,
      "max": [
        0.9999942779541016,
        0.9998895525932312,
        0.9999433159828186
      ],
      "min": [
        -0.9999839067459106,
        -0.9999998807907104,
        -0.999951958656311
      ],
      "type": "VEC3"
    },
    {
      "bufferView": 1,
      "byteOffset": 1572768,
      "componentType": 5126,
      "count": 65532,
      "max": [
        0.9999840259552002,
        0.999966025352478
      ],
      "min": [
        1.8000000636675395e-05,
        1.2000000424450263e-05
      ],
      "type": "VEC2"
    },
    {
      "bufferView": 0,
      "byteOffset": 3723000,
      "componentType": 5125,
      "count": 317337,
      "type": "SCALAR"
    },
    {
      "bufferView": 2,
      "byteOffset": 6291072,
      "componentType": 5126,
      "count": 31223,
      "max": [
        57.109352111816406,
        8.480301856994629,
        30.661510467529297
      ],
      "min": [
        18.751415252685547,
        -20.66489028930664,
        6.631278991699219
      ],
      "type": "VEC3"
    },
    {
      "bufferView": 2,
      "byteOffset": 6665748,
      "componentType": 5126,
      "count": 31223,
      "max": [
        0.9999660849571228,
        0.9999942779541016,
        0.9999350905418396
      ],
      "min": [
        -0.9999914169311523,
        -0.9999998807907104,
        -0.9998177886009216
      ],
      "type": "VEC3"
    },
    {
      "bufferView": 1,
      "byteOffset": 2097024,
      "componentType": 5126,
      "count": 31223,
      "max": [
        0.9999819993972778,
        0.9999750256538391
      ],
      "min": [
        5.500000042957254e-05,
        0.00024500000290572643
      ],
      "type": "VEC2"
    },
    {
      "bufferView": 0,
      "byteOffset": 4992348,
      "componentType": 5125,
      "count": 135003,
      "type": "SCALAR"
    }
  ],
  "asset": {
    "extras": {
      "author": "Air Digital Photogrammetry (https://sketchfab.com/AirDigitalca)",
      "license": "CC-BY-4.0 (http://creativecommons.org/licenses/by/4.0/)",
      "source": "https://sketchfab.com/3d-models/sacred-heart-cathedral-bathurst-new-brunswick-40a042e657564b938e344901a300e72c",
      "title": "Sacred Heart Cathedral \\ Bathurst, New Brunswick"
    },
    "generator": "Sketchfab-16.33.0",
    "version": "2.0"
  },
  "bufferViews": [
    {
      "buffer": 0,
      "byteLength": 5532360,
      "name": "floatBufferViews",
      "target": 34963
    },
    {
      "buffer": 0,
      "byteLength": 2346808,
      "byteOffset": 5532360,
      "byteStride": 8,
      "name": "floatBufferViews",
      "target": 34962
    },
    {
      "buffer": 0,
      "byteLength": 7040424,
      "byteOffset": 7879168,
      "byteStride": 12,
      "name": "floatBufferViews",
      "target": 34962
    }
  ],
  "buffers": [
    {
      "byteLength": 14919592,
      "uri": "scene.bin"
    }
  ],
  "extensionsUsed": [
    "KHR_materials_unlit"
  ],
  "images": [
    {
      "uri": "textures/sacred_baseColor.jpeg"
    }
  ],
  "materials": [
    {
      "doubleSided": true,
      "extensions": {
        "KHR_materials_unlit": {}
      },
      "name": "sacred",
      "pbrMetallicRoughness": {
        "baseColorTexture": {
          "index": 0
        },
        "metallicFactor": 0.0
      }
    }
  ],
  "meshes": [
    {
      "name": "Object_0",
      "primitives": [
        {
          "attributes": {
            "NORMAL": 1,
            "POSITION": 0,
            "TEXCOORD_0": 2
          },
          "indices": 3,
          "material": 0,
          "mode": 4
        }
      ]
    },
    {
      "name": "Object_1",
      "primitives": [
        {
          "attributes": {
            "NORMAL": 5,
            "POSITION": 4,
            "TEXCOORD_0": 6
          },
          "indices": 7,
          "material": 0,
          "mode": 4
        }
      ]
    },
    {
      "name": "Object_2",
      "primitives": [
        {
          "attributes": {
            "NORMAL": 9,
            "POSITION": 8,
            "TEXCOORD_0": 10
          },
          "indices": 11,
          "material": 0,
          "mode": 4
        }
      ]
    },
    {
      "name": "Object_3",
      "primitives": [
        {
          "attributes": {
            "NORMAL": 13,
            "POSITION": 12,
            "TEXCOORD_0": 14
          },
          "indices": 15,
          "material": 0,
          "mode": 4
        }
      ]
    },
    {
      "name": "Object_4",
      "primitives": [
        {
          "attributes": {
            "NORMAL": 17,
            "POSITION": 16,
            "TEXCOORD_0": 18
          },
          "indices": 19,
          "material": 0,
          "mode": 4
        }
      ]
    }
  ],
  "nodes": [
    {
      "children": [
        1
      ],
      "matrix": [
        0.9755951762199402,
        0.0014527731109410036,
        0.2195720672607422,
        0.0,
        0.0025757320690900087,
        -0.9999850392341614,
        -0.004828120581805928,
        0.0,
        0.21956177055835724,
        0.005275850184262016,
        -0.9755843281745911,
        0.0,
        0.0,
        0.0,
        0.0,
        1.0
      ],
      "name": "Sketchfab_model"
    },
    {
      "children": [
        2,
        3,
        4,
        5,
        6
      ],
      "name": "sacred.obj.cleaner.materialmerger.gles"
    },
    {
      "mesh": 0,
      "name": "Object_2"
    },
    {
      "mesh": 1,
      "name": "Object_3"
    },
    {
      "mesh": 2,
      "name": "Object_4"
    },
    {
      "mesh": 3,
      "name": "Object_5"
    },
    {
      "mesh": 4,
      "name": "Object_6"
    }
  ],
  "samplers": [
    {
      "magFilter": 9729,
      "minFilter": 9987,
      "wrapS": 10497,
      "wrapT": 10497
    }
  ],
  "scene": 0,
  "scenes": [
    {
      "name": "Sketchfab_Scene",
      "nodes": [
        0
      ]
    }
  ],
  "textures": [
    {
      "sampler": 0,
      "source": 0
    }
  ]
}
